<svg xmlns="http://www.w3.org/2000/svg" width="102.14" height="140.49" viewBox="0 0 102.14 140.49"><g id="Layer_2" data-name="Layer 2"><g id="Layer_1-2" data-name="Layer 1"><path d="M21.65,138.49c-5.9,0-10.7-1.81-14.27-5.38S2,124.74,2,118.84V21.65c0-6,1.82-10.89,5.4-14.4S15.76,2,21.65,2H93.56a2,2,0,0,1,1.58.77A18,18,0,0,1,98,8.66a26.86,26.86,0,0,1,1.07,7.76c0,5.14-1.2,9.07-3.57,11.69s-5.78,4-10,4H38.25V53.64H87.46a2,2,0,0,1,1.71,1,29.56,29.56,0,0,1,2.58,5.84,24.8,24.8,0,0,1,1.19,7.82c0,5.16-1.25,9.08-3.72,11.63a13.07,13.07,0,0,1-9.82,3.88H38.25v24.33h56.4a2,2,0,0,1,1.66.89A23.2,23.2,0,0,1,99,115a26.72,26.72,0,0,1,1.19,8c0,5.16-1.26,9.07-3.73,11.63a13.1,13.1,0,0,1-9.82,3.88Z" style="fill:#fbfbf9"/><path d="M93.56,4a16.23,16.23,0,0,1,2.51,5.23,25.1,25.1,0,0,1,1,7.19q0,7-3,10.35c-2,2.26-4.87,3.38-8.5,3.38H36.25V55.64H87.46a28.18,28.18,0,0,1,2.4,5.45,22.83,22.83,0,0,1,1.08,7.19q0,7-3.15,10.24a11.15,11.15,0,0,1-8.39,3.27H36.25v28.33h58.4a21.93,21.93,0,0,1,2.4,5.45A24.87,24.87,0,0,1,98.14,123q0,7-3.16,10.24a11.15,11.15,0,0,1-8.39,3.27H21.65q-8.07,0-12.86-4.8T4,118.84V21.65q0-8.28,4.79-13T21.65,4H93.56m0-4H21.65C15.22,0,10,2,6,5.82S0,15,0,21.65v97.19c0,6.45,2,11.73,6,15.68s9.23,6,15.68,6H86.59A15,15,0,0,0,97.85,136c2.84-2.94,4.29-7.32,4.29-13a29,29,0,0,0-1.27-8.6A25.74,25.74,0,0,0,98,107.9a4,4,0,0,0-3.33-1.78H40.25V85.79H79.4a15.06,15.06,0,0,0,11.26-4.48c2.84-3,4.28-7.33,4.28-13a26.68,26.68,0,0,0-1.29-8.45,31.08,31.08,0,0,0-2.76-6.24,4,4,0,0,0-3.43-2H40.25V34.15H85.5c4.79,0,8.65-1.58,11.46-4.7s4.09-7.38,4.09-13A29.14,29.14,0,0,0,99.9,8.08a19.79,19.79,0,0,0-3.18-6.53A4,4,0,0,0,93.56,0Z" style="fill:#fbfbf9"/><path d="M93.56,4a16.23,16.23,0,0,1,2.51,5.23,25.1,25.1,0,0,1,1,7.19q0,7-3,10.35c-2,2.26-4.87,3.38-8.5,3.38H36.25V55.64H87.46a28.18,28.18,0,0,1,2.4,5.45,22.83,22.83,0,0,1,1.08,7.19q0,7-3.15,10.24a11.15,11.15,0,0,1-8.39,3.27H36.25v28.33h58.4a21.93,21.93,0,0,1,2.4,5.45A24.87,24.87,0,0,1,98.14,123q0,7-3.16,10.24a11.15,11.15,0,0,1-8.39,3.27H21.65q-8.07,0-12.86-4.8T4,118.84V21.65q0-8.28,4.79-13T21.65,4H93.56m0-2H21.65C15.76,2,11,3.77,7.4,7.25S2,15.6,2,21.65v97.19c0,5.9,1.81,10.7,5.38,14.27s8.37,5.38,14.27,5.38H86.59a13.1,13.1,0,0,0,9.82-3.88c2.47-2.56,3.73-6.47,3.73-11.63A27,27,0,0,0,99,115a23.53,23.53,0,0,0-2.65-6,2,2,0,0,0-1.66-.89H38.25V83.79H79.4a13.07,13.07,0,0,0,9.82-3.88c2.47-2.55,3.72-6.47,3.72-11.63a24.8,24.8,0,0,0-1.19-7.82,29.56,29.56,0,0,0-2.58-5.84,2,2,0,0,0-1.71-1H38.25V32.15H85.5c4.2,0,7.56-1.36,10-4s3.57-6.55,3.57-11.69A26.86,26.86,0,0,0,98,8.66a18,18,0,0,0-2.84-5.89A2,2,0,0,0,93.56,2Z" style="fill:#282828"/></g></g></svg>