<svg xmlns="http://www.w3.org/2000/svg" width="108.14" height="146.49" viewBox="0 0 108.14 146.49"><g id="Layer_2" data-name="Layer 2"><g id="Layer_1-2" data-name="Layer 1"><path d="M24.65,143c-6.31,0-11.47-2-15.33-5.82s-5.82-9-5.82-15.33V24.65c0-6.47,2-11.67,5.85-15.47s9-5.68,15.3-5.68H96.56a3.53,3.53,0,0,1,2.77,1.35,19.91,19.91,0,0,1,3.09,6.37,28.57,28.57,0,0,1,1.13,8.2c0,5.52-1.33,9.79-4,12.7s-6.45,4.53-11.09,4.53H42.75V55.14H90.46a3.5,3.5,0,0,1,3,1.7A30.6,30.6,0,0,1,96.17,63a26.11,26.11,0,0,1,1.27,8.3c0,5.57-1.39,9.83-4.14,12.68a14.57,14.57,0,0,1-10.9,4.33H42.75v21.33h54.9a3.51,3.51,0,0,1,2.91,1.56,25,25,0,0,1,2.83,6.34,28.39,28.39,0,0,1,1.25,8.46c0,5.56-1.4,9.83-4.15,12.67A14.54,14.54,0,0,1,89.59,143Z" style="fill:#fbfbf9"/><path d="M96.56,7a16.23,16.23,0,0,1,2.51,5.23,25.1,25.1,0,0,1,1,7.19q0,7-3,10.35c-2,2.26-4.87,3.38-8.5,3.38H39.25V58.64H90.46a28.18,28.18,0,0,1,2.4,5.45,22.83,22.83,0,0,1,1.08,7.19q0,7-3.15,10.24a11.15,11.15,0,0,1-8.39,3.27H39.25v28.33h58.4a21.93,21.93,0,0,1,2.4,5.45,24.87,24.87,0,0,1,1.09,7.41q0,7-3.16,10.24a11.15,11.15,0,0,1-8.39,3.27H24.65q-8.07,0-12.86-4.8T7,121.84V24.65q0-8.28,4.79-13T24.65,7H96.56m0-7H24.65C17.41,0,11.43,2.25,6.9,6.68S0,17.2,0,24.65v97.19c0,7.27,2.3,13.27,6.85,17.81s10.52,6.84,17.8,6.84H89.59A18.15,18.15,0,0,0,103,141.08c3.4-3.52,5.13-8.6,5.13-15.1a32,32,0,0,0-1.41-9.5,28.43,28.43,0,0,0-3.26-7.24,7,7,0,0,0-5.82-3.12H46.25V91.79H82.4a18.18,18.18,0,0,0,13.42-5.4c3.4-3.52,5.12-8.61,5.12-15.11a29.77,29.77,0,0,0-1.44-9.4,34.75,34.75,0,0,0-3-6.83,7,7,0,0,0-6-3.41H46.25V40.15H88.5c7.07,0,11.35-3.09,13.69-5.69,3.22-3.56,4.86-8.63,4.86-15a31.91,31.91,0,0,0-1.28-9.2,23.1,23.1,0,0,0-3.68-7.51A7,7,0,0,0,96.56,0Z" style="fill:#fbfbf9"/><path d="M96.56,7a16.23,16.23,0,0,1,2.51,5.23,25.1,25.1,0,0,1,1,7.19q0,7-3,10.35c-2,2.26-4.87,3.38-8.5,3.38H39.25V58.64H90.46a28.18,28.18,0,0,1,2.4,5.45,22.83,22.83,0,0,1,1.08,7.19q0,7-3.15,10.24a11.15,11.15,0,0,1-8.39,3.27H39.25v28.33h58.4a21.93,21.93,0,0,1,2.4,5.45,24.87,24.87,0,0,1,1.09,7.41q0,7-3.16,10.24a11.15,11.15,0,0,1-8.39,3.27H24.65q-8.07,0-12.86-4.8T7,121.84V24.65q0-8.28,4.79-13T24.65,7H96.56m0-3H24.65C18.49,4,13.46,5.86,9.7,9.54S4,18.32,4,24.65v97.19c0,6.17,1.91,11.21,5.67,15s8.8,5.67,15,5.67H89.59a14,14,0,0,0,10.54-4.19c2.66-2.75,4-6.89,4-12.32a27.92,27.92,0,0,0-1.23-8.3,24.57,24.57,0,0,0-2.76-6.22,3,3,0,0,0-2.5-1.34H42.25V87.79H82.4a14,14,0,0,0,10.54-4.18c2.66-2.75,4-6.9,4-12.33a25.63,25.63,0,0,0-1.24-8.14,30.74,30.74,0,0,0-2.67-6,3,3,0,0,0-2.57-1.46H42.25V36.15H88.5c4.5,0,8.1-1.47,10.72-4.37s3.83-7,3.83-12.36a28.22,28.22,0,0,0-1.11-8.05,19.12,19.12,0,0,0-3-6.21A3,3,0,0,0,96.56,4Z" style="fill:#282828"/></g></g></svg>