<svg xmlns="http://www.w3.org/2000/svg" width="123.61" height="152.81" viewBox="0 0 123.61 152.81"><g id="Layer_2" data-name="Layer 2"><g id="Layer_1-2" data-name="Layer 1"><path d="M56.25,149.31c-3.53,0-7.6-.15-12.11-.45S35,148,30.31,147.3a76.83,76.83,0,0,1-13.12-3.2C5.86,140,3.5,132.09,3.5,126.19V22a12.25,12.25,0,0,1,3.42-9,19.5,19.5,0,0,1,7.69-4.55A82.61,82.61,0,0,1,33.33,4.61,215,215,0,0,1,55.38,3.5C74,3.5,88.65,6.84,99,13.42c10.84,6.9,16.33,17.43,16.33,31.28a30.72,30.72,0,0,1-6.9,20.09,35.34,35.34,0,0,1-8.66,7.47A38.56,38.56,0,0,1,113.4,83.1c4.45,5.84,6.71,12.93,6.71,21.09,0,15.28-5.82,26.82-17.28,34.31C91.85,145.67,76.17,149.31,56.25,149.31Zm-13.5-33.83c1.72.28,3.67.51,5.83.69,3.42.28,6.73.42,9.85.42,6.55,0,11.81-1.24,15.65-3.69,3.43-2.2,5-5.38,5-10,0-4.34-1.36-7.39-4.15-9.33-3.17-2.19-8.22-3.3-15-3.3H42.75ZM58.21,59.72c6.1,0,10.56-1.12,13.24-3.34,2.52-2.08,3.74-5,3.74-9.07A9.18,9.18,0,0,0,71,39.09c-3.24-2.2-8.41-3.31-15.36-3.31-2.66,0-5.51.1-8.46.32-1.61.11-3.08.26-4.38.43V59.72Z" style="fill:#fbfbf9"/><path d="M55.38,7q27,0,41.72,9.37T111.81,44.7a27.2,27.2,0,0,1-6.1,17.87,35.85,35.85,0,0,1-14.34,10c.42.14.86.27,1.27.42q12,4.35,18,12.2t6,19q0,21.14-15.69,31.37T56.25,145.81q-5.23,0-11.88-.44t-13.51-1.52a73.9,73.9,0,0,1-12.53-3.06Q7,136.67,7,126.19V22A8.84,8.84,0,0,1,9.4,15.5a15.84,15.84,0,0,1,6.32-3.71,79.12,79.12,0,0,1,18-3.7A210.53,210.53,0,0,1,55.38,7M39.25,63.22h19q10.46,0,15.47-4.14t5-11.77A12.67,12.67,0,0,0,72.92,36.2q-5.78-3.93-17.33-3.92-4.14,0-8.71.32a57.85,57.85,0,0,0-7.63,1V63.22m19.18,56.87q10.89,0,17.54-4.24t6.64-13q0-8.28-5.66-12.2T60,86.75H39.25v31.6a62.37,62.37,0,0,0,9,1.31q5.34.44,10.14.43M55.38,0A218.83,218.83,0,0,0,33,1.13a86.71,86.71,0,0,0-19.54,4,22.91,22.91,0,0,0-9,5.38A15.71,15.71,0,0,0,0,22V126.19c0,9.91,5.66,17.43,15.93,21.18l.11,0a81,81,0,0,0,13.72,3.35c4.75.75,9.51,1.29,14.15,1.6s8.73.45,12.34.45c20.61,0,36.93-3.83,48.5-11.38,12.51-8.17,18.86-20.7,18.86-37.24,0-9-2.5-16.75-7.43-23.21a39.09,39.09,0,0,0-10-9.06,37.27,37.27,0,0,0,4.91-4.9,34.21,34.21,0,0,0,7.69-22.32c0-15.13-6-26.65-17.94-34.23C90,3.52,74.66,0,55.38,0ZM46.25,39.67l1.13-.08c2.87-.21,5.63-.31,8.21-.31,7.77,0,11.57,1.47,13.39,2.71a5.71,5.71,0,0,1,2.71,5.32c0,3.84-1.32,5.42-2.47,6.37-1.4,1.16-4.45,2.54-11,2.54h-12V39.67Zm0,54.08H60c7.56,0,11.25,1.46,13,2.68,1.23.86,2.64,2.36,2.64,6.45,0,4.3-1.72,6-3.41,7.07-3.27,2.08-7.9,3.14-13.77,3.14-3,0-6.24-.14-9.56-.41-.92-.07-1.79-.16-2.62-.25V93.75Z" style="fill:#fbfbf9"/><path d="M55.38,7q27,0,41.72,9.37T111.81,44.7a27.2,27.2,0,0,1-6.1,17.87,35.85,35.85,0,0,1-14.34,10c.42.14.86.27,1.27.42q12,4.35,18,12.2t6,19q0,21.14-15.69,31.37T56.25,145.81q-5.23,0-11.88-.44t-13.51-1.52a73.9,73.9,0,0,1-12.53-3.06Q7,136.67,7,126.19V22A8.84,8.84,0,0,1,9.4,15.5a15.84,15.84,0,0,1,6.32-3.71,79.12,79.12,0,0,1,18-3.7A210.53,210.53,0,0,1,55.38,7M39.25,63.22h19q10.46,0,15.47-4.14t5-11.77A12.67,12.67,0,0,0,72.92,36.2q-5.78-3.93-17.33-3.92-4.14,0-8.71.32a57.85,57.85,0,0,0-7.63,1V63.22m19.18,56.87q10.89,0,17.54-4.24t6.64-13q0-8.28-5.66-12.2T60,86.75H39.25v31.6a62.37,62.37,0,0,0,9,1.31q5.34.44,10.14.43M55.38,4a213.67,213.67,0,0,0-22,1.11A82.13,82.13,0,0,0,14.74,9a18.66,18.66,0,0,0-7.46,4.42A11.72,11.72,0,0,0,4,22V126.19c0,5.74,2.31,13.41,13.3,17.42a77.88,77.88,0,0,0,13.09,3.2c4.63.73,9.27,1.26,13.78,1.55s8.56.45,12.08.45c19.82,0,35.41-3.61,46.31-10.73,11.31-7.39,17-18.79,17-33.89,0-8-2.23-15-6.61-20.78a38.36,38.36,0,0,0-14.3-11.1A35.21,35.21,0,0,0,108,64.47a30.23,30.23,0,0,0,6.78-19.77c0-13.67-5.41-24.05-16.09-30.86C88.46,7.31,73.88,4,55.38,4ZM42.25,36.1c1.42-.21,3-.38,4.84-.5,3-.22,5.83-.32,8.5-.32,7,0,12.32,1.14,15.64,3.4a9.63,9.63,0,0,1,4.46,8.63c0,4.19-1.28,7.28-3.92,9.46s-7.34,3.45-13.56,3.45h-16V36.1Zm0,53.65H60c6.9,0,12,1.14,15.29,3.39,2.94,2,4.37,5.23,4.37,9.74,0,4.76-1.72,8.17-5.26,10.44-3.92,2.5-9.28,3.77-15.92,3.77-3.14,0-6.46-.14-9.89-.42q-3.52-.28-6.29-.77V89.75Z" style="fill:#282828"/></g></g></svg>