<svg xmlns="http://www.w3.org/2000/svg" width="123.39" height="151.5" viewBox="0 0 123.39 151.5"><g id="Layer_2" data-name="Layer 2"><g id="Layer_1-2" data-name="Layer 1"><path d="M98.09,148c-6.21,0-11.11-1.49-14.58-4.42a44.43,44.43,0,0,1-8.65-10.29L54.23,101.58H43.62v40.74a3.49,3.49,0,0,1-2.39,3.32,39.47,39.47,0,0,1-7,1.35,76.29,76.29,0,0,1-9.37.57c-7.48,0-12.75-1.42-16.13-4.34s-5.24-8-5.24-14.85V22a12.25,12.25,0,0,1,3.42-9,19.5,19.5,0,0,1,7.69-4.55,77.83,77.83,0,0,1,17.6-3.86A184.69,184.69,0,0,1,52.76,3.5c20.35,0,36,4.41,46.47,13.12,10.67,8.87,16.08,21,16.08,36.14a44.09,44.09,0,0,1-7.69,25.4A49.57,49.57,0,0,1,92.06,92.67c.56.72,1.12,1.44,1.69,2.15,3.57,4.53,7,8.93,10.26,13.1s6.27,8.18,8.88,11.73,4.8,6.69,6.44,9.22a3.47,3.47,0,0,1,.41,2.91,22.13,22.13,0,0,1-8.28,12A22.52,22.52,0,0,1,98.09,148Zm-44-79.13c6.46,0,11.66-1.42,15.46-4.22,3.52-2.59,5.23-6.41,5.23-11.67s-1.63-8.92-5-11.51c-3.57-2.76-9.37-4.17-17.25-4.17-2.35,0-4.54.07-6.51.21-.89.07-1.77.16-2.63.29V68.87Z" style="fill:#fbfbf9"/><path d="M52.76,7Q82.18,7,97,19.31t14.81,33.45a40.53,40.53,0,0,1-7.08,23.43A46.83,46.83,0,0,1,86.81,91.57C88.19,93.39,89.58,95.2,91,97q5.34,6.75,10.25,13.07t8.82,11.66q3.93,5.34,6.32,9a18.58,18.58,0,0,1-7,10.13,19,19,0,0,1-11.33,3.6q-8.07,0-12.32-3.6a40.43,40.43,0,0,1-8-9.48L56.12,98.08h-16v44.24a36.39,36.39,0,0,1-6.32,1.2,72.6,72.6,0,0,1-8.93.54q-9.81,0-13.84-3.48c-2.69-2.33-4-6.39-4-12.21V22A8.84,8.84,0,0,1,9.4,15.5a15.84,15.84,0,0,1,6.32-3.71A74,74,0,0,1,32.6,8.09,179.83,179.83,0,0,1,52.76,7M39.9,72.37H54.07q10.89,0,17.54-4.9T78.26,53q0-9.37-6.32-14.27T52.54,33.8c-2.47,0-4.72.08-6.75.22a39.58,39.58,0,0,0-5.89.87V72.37M52.76,0A189.16,189.16,0,0,0,31.82,1.13,81.86,81.86,0,0,0,13.41,5.18a22.77,22.77,0,0,0-9,5.37A15.71,15.71,0,0,0,0,22V128.37c0,7.92,2.17,13.81,6.46,17.51,4,3.49,10.06,5.18,18.41,5.18a81.35,81.35,0,0,0,9.8-.59A42.28,42.28,0,0,0,42.33,149a7,7,0,0,0,4.79-6.64V105.08h5.21L71.92,135.2a47.86,47.86,0,0,0,9.33,11.05c4.12,3.48,9.78,5.25,16.84,5.25a25.93,25.93,0,0,0,15.41-4.91,25.48,25.48,0,0,0,9.59-13.81,7,7,0,0,0-.83-5.82c-1.67-2.58-3.88-5.74-6.55-9.37s-5.63-7.55-8.93-11.81c-3-3.92-6.27-8-9.6-12.26a52.16,52.16,0,0,0,13.33-13.38,47.6,47.6,0,0,0,8.3-27.38c0-16.2-5.83-29.27-17.34-38.83C90.34,4.69,74,0,52.76,0ZM46.9,41c1.72-.1,3.62-.16,5.64-.16,7,0,12.21,1.19,15.11,3.44,1.54,1.2,3.61,3.41,3.61,8.74s-2,7.55-3.81,8.86c-3.18,2.34-7.68,3.53-13.38,3.53H46.9V41Z" style="fill:#fbfbf9"/><path d="M52.76,7Q82.18,7,97,19.31t14.81,33.45a40.53,40.53,0,0,1-7.08,23.43A46.83,46.83,0,0,1,86.81,91.57C88.19,93.39,89.58,95.2,91,97q5.34,6.75,10.25,13.07t8.82,11.66q3.93,5.34,6.32,9a18.58,18.58,0,0,1-7,10.13,19,19,0,0,1-11.33,3.6q-8.07,0-12.32-3.6a40.43,40.43,0,0,1-8-9.48L56.12,98.08h-16v44.24a36.39,36.39,0,0,1-6.32,1.2,72.48,72.48,0,0,1-8.93.54q-9.81,0-13.84-3.48c-2.69-2.33-4-6.39-4-12.21V22A8.84,8.84,0,0,1,9.4,15.5a15.84,15.84,0,0,1,6.32-3.71A74,74,0,0,1,32.6,8.09,179.83,179.83,0,0,1,52.76,7M39.9,72.37H54.07q10.89,0,17.54-4.9T78.26,53q0-9.37-6.32-14.27T52.54,33.8c-2.47,0-4.72.08-6.75.22a39.58,39.58,0,0,0-5.89.87V72.37M52.76,4A183.47,183.47,0,0,0,32.27,5.11,77.44,77.44,0,0,0,14.73,9a18.81,18.81,0,0,0-7.45,4.42A11.72,11.72,0,0,0,4,22V128.37c0,6.7,1.71,11.57,5.07,14.48s8.45,4.21,15.8,4.21a77,77,0,0,0,9.3-.56,39.2,39.2,0,0,0,6.9-1.33,3,3,0,0,0,2-2.85V101.08H54.5l20.81,32a43.2,43.2,0,0,0,8.53,10.13c3.37,2.86,8.17,4.31,14.25,4.31a22,22,0,0,0,13.07-4.16,21.56,21.56,0,0,0,8.1-11.71,3,3,0,0,0-.35-2.49c-1.64-2.52-3.8-5.61-6.42-9.19s-5.6-7.49-8.87-11.72-6.69-8.57-10.26-13.09l-2-2.62a49,49,0,0,0,15.89-14.64,43.7,43.7,0,0,0,7.6-25.12c0-15-5.35-27-15.9-35.76C88.52,8.38,73,4,52.76,4ZM42.9,37.37c1-.16,2.05-.28,3.1-.36,2-.14,4.18-.21,6.54-.21,8,0,13.9,1.44,17.56,4.28,3.47,2.69,5.16,6.58,5.16,11.9s-1.78,9.38-5.43,12.08c-3.89,2.86-9.19,4.31-15.76,4.31H42.9v-32Z" style="fill:#282828"/></g></g></svg>